<?xml version="1.0" encoding="utf-8"?><svg version="1.1" id="Layer_1" xmlns="http://www.w3.org/2000/svg" xmlns:xlink="http://www.w3.org/1999/xlink" x="0px" y="0px" viewBox="0 0 95.88 122.88" style="enable-background:new 0 0 95.88 122.88" xml:space="preserve"><style type="text/css">.st0{fill-rule:evenodd;clip-rule:evenodd;}</style><g><path class="st0" d="M20.96,75.56h53.96c0.85,0,1.55,0.7,1.55,1.55v35.75c0,0.85-0.7,1.55-1.55,1.55H20.96 c-0.85,0-1.55-0.7-1.55-1.55V77.11C19.41,76.26,20.11,75.56,20.96,75.56L20.96,75.56L20.96,75.56z M46.58,47.98h2.73v2.73h-2.73 V47.98L46.58,47.98z M46.58,42.53h2.73v2.73h-2.73V42.53L46.58,42.53z M5.72,90.52v-2.73h2.73v2.73H5.72L5.72,90.52z M49.99,56.72 v-2.73h2.73v2.73H49.99L49.99,56.72z M55.44,56.72v-2.73h2.73v2.73H55.44L55.44,56.72z M60.89,56.72v-2.73h2.73v2.73H60.89 L60.89,56.72z M66.35,56.72v-2.73h2.73v2.73H66.35L66.35,56.72z M71.8,56.72v-2.73h2.73v2.73H71.8L71.8,56.72z M77.26,56.72v-2.73 h2.73v2.73H77.26L77.26,56.72z M82.71,56.72v-2.73h2.73v2.73H82.71L82.71,56.72z M88.17,56.72v-2.73h2.73v2.73H88.17L88.17,56.72z M93.62,54.89v-0.9h0.9h1.36v1.36v1.83h-2.73v-1.83L93.62,54.89L93.62,54.89z M93.16,59.91h2.73v2.73h-2.73V59.91L93.16,59.91z M93.16,65.36h2.73v2.73h-2.73V65.36L93.16,65.36z M93.16,70.82h2.73v2.73h-2.73V70.82L93.16,70.82z M93.16,76.27h2.73V79h-2.73 V76.27L93.16,76.27z M93.16,81.73h2.73v2.73h-2.73V81.73L93.16,81.73z M94.58,87.18h1.3v1.3v1.36h-1.36H93.1v-2.73h1.42 L94.58,87.18L94.58,87.18z M90.37,87.12v2.73h-2.73v-2.73H90.37L90.37,87.12z M45.02,53.99v2.73H42.3v-2.73H45.02L45.02,53.99z M39.57,53.99v2.73h-2.73v-2.73H39.57L39.57,53.99z M34.12,53.99v2.73h-2.73v-2.73H34.12L34.12,53.99z M28.66,53.99v2.73h-2.73 v-2.73H28.66L28.66,53.99z M23.21,53.99v2.73h-2.73v-2.73H23.21L23.21,53.99z M17.75,53.99v2.73h-2.73v-2.73H17.75L17.75,53.99z M12.3,53.99v2.73H9.57v-2.73H12.3L12.3,53.99z M6.84,53.99v2.73H4.12v-2.73H6.84L6.84,53.99z M1.39,53.99v0.03l1.34,1.34v2.7H0 v-2.7v-1.36h1.36H1.39L1.39,53.99z M0,60.78h2.73v2.73H0V60.78L0,60.78z M0,66.24h2.73v2.73H0V66.24L0,66.24z M0,71.69h2.73v2.73H0 V71.69L0,71.69z M0,77.15h2.73v2.73H0V77.15L0,77.15z M0,82.6h2.73v2.73H0V82.6L0,82.6z M0,88.06h1.1l0.27-0.27h1.63v2.73H1.36H0 v-1.36V88.06L0,88.06z M59.75,14.2c-0.36,0.18-0.71,0.37-1.07,0.58c-1.07,0.62-2.12,1.39-3.19,2.27l-2.29-2.63 c0.79-0.73,1.65-1.4,2.56-2c0.73-0.47,1.49-0.89,2.27-1.26c0.31-0.16,0.63-0.3,0.95-0.44c-1.51-2.68-3.69-4.6-6.16-5.79 c-2.47-1.18-5.23-1.64-7.91-1.38c-2.67,0.26-5.26,1.23-7.41,2.89c-2.48,1.92-4.36,4.8-5.09,8.6l-0.23,1.19l-1.19,0.21 c-1.16,0.2-2.2,0.48-3.11,0.84c-0.88,0.34-1.67,0.76-2.36,1.26c-0.55,0.4-1.03,0.84-1.43,1.33c-1.25,1.5-1.83,3.37-1.81,5.26 c0.01,1.93,0.64,3.87,1.8,5.47c0.43,0.59,0.93,1.14,1.5,1.61c0.58,0.48,1.23,0.87,1.96,1.18c0.72,0.3,1.53,0.51,2.42,0.64h34.41 c1.68-0.4,3.15-0.95,4.41-1.65c1.25-0.7,2.27-1.55,3.03-2.57c1.19-1.58,1.77-3.81,1.79-6.1c0.03-2.4-0.56-4.82-1.7-6.57 c-0.33-0.51-0.69-0.96-1.07-1.37c-1.71-1.84-3.89-2.65-6.14-2.66C63.05,13.09,61.36,13.49,59.75,14.2L59.75,14.2L59.75,14.2z M62.43,9.79c0.76-0.12,1.52-0.18,2.27-0.17c3.18,0.02,6.26,1.16,8.68,3.77c0.51,0.55,0.99,1.16,1.43,1.85 c1.52,2.33,2.29,5.45,2.26,8.5c-0.03,2.99-0.84,5.97-2.49,8.16c-1.07,1.43-2.46,2.59-4.11,3.52c-1.6,0.89-3.45,1.57-5.54,2.05 l-0.39,0.05H29.89l-0.22-0.02c-1.27-0.16-2.42-0.46-3.46-0.89c-1.08-0.44-2.03-1.02-2.87-1.72c-0.8-0.66-1.49-1.42-2.09-2.24 c-1.58-2.18-2.43-4.85-2.45-7.5c-0.02-2.68,0.82-5.36,2.62-7.52c0.58-0.7,1.27-1.34,2.06-1.91c0.92-0.66,1.97-1.22,3.15-1.68 c0.82-0.32,1.69-0.58,2.61-0.8c1.04-4.14,3.27-7.34,6.13-9.55c2.67-2.07,5.89-3.28,9.21-3.6c3.3-0.32,6.7,0.24,9.74,1.71 C57.65,3.39,60.55,6.05,62.43,9.79L62.43,9.79L62.43,9.79z M40.91,116.55h14.07c0.04,2.44,1.04,4.61,3.76,6.33H37.15 C39.32,121.3,40.92,119.39,40.91,116.55L40.91,116.55L40.91,116.55z M47.94,109.18c1.1,0,1.99,0.89,1.99,1.99 c0,1.1-0.89,1.99-1.99,1.99c-1.1,0-1.99-0.89-1.99-1.99C45.95,110.07,46.84,109.18,47.94,109.18L47.94,109.18z M24.08,78.48h47.73 c0.75,0,1.37,0.62,1.37,1.37v26.71c0,0.75-0.62,1.37-1.37,1.37H24.08c-0.75,0-1.37-0.62-1.37-1.37V79.85 C22.71,79.09,23.32,78.48,24.08,78.48L24.08,78.48L24.08,78.48z"/></g></svg>